<svg width="20" height="23" viewBox="0 0 20 23" fill="none" xmlns="http://www.w3.org/2000/svg">
<path d="M18.6 4.12V20.06C18.6 20.4658 18.4388 20.8549 18.1519 21.1419C17.865 21.4288 17.4758 21.59 17.07 21.59H5.35001C5.14911 21.5906 4.95013 21.5511 4.76468 21.4739C4.57923 21.3966 4.41102 21.2831 4.26999 21.14L4.26864 21.1386C4.26247 21.133 4.25654 21.1271 4.25088 21.1209L2.89555 19.7697L2.60502 19.48L0.959996 17.84C0.959529 17.8395 0.959065 17.839 0.958602 17.8385L0.940035 17.82C0.659264 17.5304 0.501564 17.1433 0.500033 16.74V4.12C0.498714 3.91955 0.537029 3.72082 0.612826 3.53525C0.688622 3.34968 0.800407 3.18094 0.941683 3.03873C1.08296 2.89652 1.25094 2.78365 1.43601 2.70664C1.62108 2.62963 1.81954 2.59 2.01999 2.59H6.08005H13.39H17.02C17.2251 2.58329 17.4294 2.61789 17.6209 2.69178C17.8123 2.76566 17.987 2.87731 18.1344 3.02005C18.2818 3.1628 18.399 3.33374 18.479 3.52271C18.559 3.71167 18.6001 3.9148 18.6 4.12Z" fill="url(#paint0_linear_2104_759)"/>
<path d="M6.08005 0.5V4.67M13.39 0.5V4.67M18.6 4.12V20.06C18.6 20.4658 18.4388 20.8549 18.1519 21.1419C17.865 21.4288 17.4758 21.59 17.07 21.59H5.35001C5.14911 21.5906 4.95013 21.5511 4.76468 21.4739C4.57923 21.3966 4.41102 21.2831 4.26999 21.14L0.940035 17.82C0.659264 17.5304 0.501564 17.1433 0.500033 16.74V4.12C0.498714 3.91955 0.537029 3.72082 0.612826 3.53525C0.688622 3.34968 0.800407 3.18094 0.941683 3.03873C1.08296 2.89652 1.25094 2.78365 1.43601 2.70664C1.62108 2.62963 1.81954 2.59 2.01999 2.59H17.02C17.2251 2.58329 17.4294 2.61789 17.6209 2.69178C17.8123 2.76566 17.987 2.87731 18.1344 3.02005C18.2818 3.1628 18.399 3.33374 18.479 3.52271C18.559 3.71167 18.6001 3.9148 18.6 4.12ZM4.72001 18.65V20.93C4.7218 20.9853 4.70659 21.0397 4.67643 21.0861C4.64626 21.1324 4.60263 21.1684 4.55137 21.1891C4.50011 21.2098 4.4437 21.2143 4.38981 21.2019C4.33591 21.1896 4.28715 21.161 4.25004 21.12L2.60502 19.48L0.959996 17.84C0.923828 17.801 0.899545 17.7525 0.889928 17.7002C0.88031 17.6479 0.885803 17.5939 0.905736 17.5446C0.925668 17.4953 0.959211 17.4527 1.00248 17.4218C1.04574 17.3909 1.09689 17.3729 1.15 17.37H3.44004C3.77951 17.37 4.10508 17.5049 4.34513 17.7449C4.58517 17.985 4.72001 18.3105 4.72001 18.65Z" stroke="url(#paint1_linear_2104_759)" stroke-linecap="round" stroke-linejoin="round"/>
<path d="M4.25082 21.1209L2.89551 19.7697L2.60495 19.48L0.959935 17.84C0.959468 17.8395 0.959004 17.839 0.958541 17.8385C0.923143 17.7998 0.89936 17.7518 0.889867 17.7002C0.880249 17.6479 0.885742 17.5939 0.905675 17.5446C0.925607 17.4953 0.95915 17.4527 1.00242 17.4218C1.04568 17.3909 1.09683 17.3729 1.14994 17.37H3.43998C3.77945 17.37 4.10502 17.5049 4.34507 17.7449C4.58511 17.985 4.71994 18.3105 4.71994 18.65V20.93C4.72174 20.9853 4.70653 21.0397 4.67637 21.0861C4.6462 21.1324 4.60256 21.1684 4.5513 21.1891C4.50005 21.2098 4.44364 21.2143 4.38974 21.2019C4.34444 21.1915 4.30276 21.1697 4.26857 21.1386C4.26241 21.133 4.25648 21.1271 4.25082 21.1209Z" fill="#E9F6FE"/>
<path d="M0.609863 8.61002H18.5999" stroke="#E9F6FE" stroke-linecap="round" stroke-linejoin="round"/>
<path d="M5.72998 12.62H6.39996H5.72998Z" fill="#E9F6FE"/>
<path d="M9.39996 12.62H10.06H9.39996Z" fill="#E9F6FE"/>
<path d="M13.06 12.62H13.72H13.06Z" fill="#E9F6FE"/>
<path d="M5.72998 16.01H6.39996H5.72998Z" fill="#E9F6FE"/>
<path d="M9.39996 16.01H10.06H9.39996Z" fill="#E9F6FE"/>
<path d="M13.06 16.01H13.72H13.06Z" fill="#E9F6FE"/>
<path d="M5.72998 12.62H6.39996M9.39996 12.62H10.06M13.06 12.62H13.72M5.72998 16.01H6.39996M9.39996 16.01H10.06M13.06 16.01H13.72" stroke="#E9F6FE" stroke-linecap="round" stroke-linejoin="round"/>
<defs>
<linearGradient id="paint0_linear_2104_759" x1="9.55002" y1="0.5" x2="9.55002" y2="21.59" gradientUnits="userSpaceOnUse">
<stop stop-color="#33E4DB"/>
<stop offset="1" stop-color="#00BBD3"/>
</linearGradient>
<linearGradient id="paint1_linear_2104_759" x1="9.55002" y1="0.5" x2="9.55002" y2="21.59" gradientUnits="userSpaceOnUse">
<stop stop-color="#33E4DB"/>
<stop offset="1" stop-color="#00BBD3"/>
</linearGradient>
</defs>
</svg>
