<svg width="21" height="24" viewBox="0 0 21 24" fill="none" xmlns="http://www.w3.org/2000/svg">
<path d="M2.86178 4.26306H2.22173C1.26166 4.26306 0.5 5.10629 0.5 6.15089V21.5083C0.5 22.5498 1.27126 23.3962 2.22173 23.3962H13.7426M12.4401 4.26306H13.0801C14.0402 4.26306 14.7987 5.10629 14.7987 6.15089V11.6728M3.02499 15.203H5.96921M3.02499 17.7799H9.76149M3.02499 20.3882H10.0911M3.67783 9.75349H5.24915L6.34363 11.6696L8.05576 7.8342L8.74381 10.2601H11.7392M14.8083 16.4458V20.5267M16.8852 18.4878H12.7345M12.4401 5.19754V3.41669C12.4401 3.22726 12.3635 3.0456 12.2273 2.91165C12.0911 2.77771 11.9063 2.70246 11.7136 2.70246H9.17584C9.26257 2.50374 9.30617 2.28942 9.30385 2.07319C9.30385 1.65595 9.13527 1.2558 8.83519 0.960775C8.53511 0.665745 8.12811 0.5 7.70373 0.5C7.27935 0.5 6.87236 0.665745 6.57228 0.960775C6.2722 1.2558 6.10361 1.65595 6.10361 2.07319C6.10293 2.28926 6.14647 2.50327 6.23163 2.70246H3.59783C3.40516 2.70246 3.22038 2.77771 3.08415 2.91165C2.94791 3.0456 2.87138 3.22726 2.87138 3.41669V5.19754H12.4401ZM19.9062 18.4878C19.9062 21.256 17.6238 23.5 14.8083 23.5C11.9927 23.5 9.71029 21.256 9.71029 18.4878C9.71029 15.7197 11.9927 13.4756 14.8083 13.4756C17.6238 13.4756 19.9062 15.7197 19.9062 18.4878Z" stroke="white" stroke-linecap="round" stroke-linejoin="round"/>
</svg>
